<?xml version="1.0" standalone="no"?><!DOCTYPE svg PUBLIC "-//W3C//DTD SVG 1.1//EN" "http://www.w3.org/Graphics/SVG/1.1/DTD/svg11.dtd"><svg t="1554822302196" class="icon" style="" viewBox="0 0 1024 1024" version="1.1" xmlns="http://www.w3.org/2000/svg" p-id="4556" xmlns:xlink="http://www.w3.org/1999/xlink" width="200" height="200"><defs><style type="text/css"></style></defs><path d="M512 512m-512 0a512 512 0 1 0 1024 0 512 512 0 1 0-1024 0Z" fill="#09B79D" p-id="4557"></path><path d="M620.544 672.256c9.728-1.536 28.16-4.096 28.16-4.096-189.952 11.776-323.584 68.608-321.536 67.584 0 0-7.68 5.12 0 8.192 3.584 1.536 25.6-8.192 25.6-8.192 151.04-53.248 324.608-67.584 324.608-67.584-19.968 1.024-56.832 4.096-56.832 4.096z" fill="#FFFFFF" p-id="4558"></path><path d="M329.728 739.328c11.776-4.608 39.936-14.848 80.384-26.624-19.968 5.632-39.424 11.776-58.88 18.944-8.192 3.584-18.944 7.68-22.528 8.192 0.512 0 1.024 0 1.024-0.512z m13.824-64c-2.048-1.024-4.608-1.536-6.656-2.56-8.704-3.072-12.8-4.608-13.312-11.776-1.024-11.264 6.144-39.936 11.776-51.2 10.24-22.016 23.04-46.08 38.4-71.168l2.048-3.072-5.12-4.096-3.072 1.024-23.04 11.776c-0.512 0.512-1.536 1.024-2.56 1.536 0-4.096 2.048-6.144 7.168-9.728l3.584-2.56c26.112-18.944 34.304-23.552 36.864-23.552s8.192 9.216 8.704 12.288c0.512 5.12 0.512 5.632-22.528 56.832l-8.192 18.432c-16.384 36.352-24.064 59.904-22.528 72.704 0 1.536 0.512 3.584 1.024 5.12 0 1.024 0.512 1.536 0.512 2.048-1.536-1.536-2.56-1.536-3.072-2.048z m123.392-16.896c-17.92 0-29.184-17.92-31.232-35.328-3.072-27.648 12.288-59.904 27.136-80.896 19.456-27.136 54.784-49.152 69.12-50.176 7.68 0 16.384 6.144 18.944 9.728l-0.512 0.512c-1.536 0.512-3.584 1.536-5.12 3.072l-4.608 5.632 7.168 1.536c6.656 1.536 10.24 7.68 11.776 20.992 5.12 48.128-32.768 114.688-87.552 124.416-1.536 0-3.584 0.512-5.12 0.512z m47.616-134.656c-45.568 32.256-60.416 71.68-58.88 97.792 0 0 1.536 22.528 13.824 22.528 10.24-1.024 26.112-13.312 31.744-19.456l22.016-25.088c9.728-13.824 29.184-47.104 27.136-65.536-1.024-7.168-5.12-17.92-14.848-17.92-6.656 0.512-10.752 5.12-14.336 8.192l-0.512-4.096-6.144 3.584z m94.208 119.296c-17.92 0-29.184-17.92-31.232-35.328-3.072-27.648 11.776-59.904 27.136-80.896 19.456-27.136 54.784-49.152 69.12-50.176 7.68 0 16.384 6.144 18.944 9.728l-0.512 0.512c-1.536 0.512-3.584 1.536-5.12 3.072l-4.608 5.632 7.168 1.536c6.656 1.536 10.24 7.68 11.776 20.992 5.12 48.128-32.768 114.688-87.552 124.416-1.536 0-3.584 0.512-5.12 0.512z m47.616-134.144c-45.568 32.256-60.416 71.68-58.88 97.792 0 0 1.536 22.528 13.824 22.528 10.24-1.024 26.112-13.312 31.744-19.456l22.016-25.088c9.728-13.824 29.184-47.104 27.136-65.536-1.024-7.168-5.632-17.92-14.848-17.92-6.656 0.512-10.752 5.12-13.824 8.192l-0.512-4.096-6.656 3.584z m21.504 174.592c-208.384 12.8-321.536 67.584-321.536 67.584s-7.68 5.12 0 8.192c3.584 1.536 25.6-8.192 25.6-8.192 156.16-55.296 157.184-53.76 325.12-67.584-20.48 1.024-57.344 4.096-57.344 4.096 9.728-1.536 28.16-4.096 28.16-4.096z" fill="#FFFFFF" p-id="4559"></path><path d="M284.672 832c-26.624 0-48.128-21.504-48.128-48.128V240.128c0-26.624 21.504-48.128 48.128-48.128h454.656c26.624 0 48.128 21.504 48.128 48.128v543.744c0 26.624-21.504 48.128-48.128 48.128H284.672z m0-618.496c-14.848 0-27.136 12.288-27.136 27.136v543.744c0 14.848 12.288 27.136 27.136 27.136h454.656c14.848 0 27.136-12.288 27.136-27.136V240.128c0-14.848-12.288-27.136-27.136-27.136 0 0.512-454.656 0.512-454.656 0.512z" fill="#FFFFFF" p-id="4560"></path><path d="M360.96 406.528c-4.608 0-8.192-3.584-8.192-8.704 0-4.608 3.584-8.192 8.192-8.192h301.568c4.608 0 8.192 3.584 8.192 8.192 0 4.608-3.584 8.704-8.192 8.704H360.96z m0-88.064c-4.608 0-8.192-3.584-8.192-8.704 0-4.608 3.584-8.192 8.192-8.192h301.568c4.608 0 8.192 3.584 8.192 8.192 0 4.608-3.584 8.704-8.192 8.704H360.96z" fill="#FFFFFF" p-id="4561"></path></svg>